PathFileType	4	(X/Y/Z)	7_1_34_p1_0-240_filt_butterworth.trc
DataRate	CameraRate	NumFrames	NumMarkers	Units	OrigDataRate	OrigDataStartFrame	OrigNumFrames
59.0	59.0	4	27	m	59.0	0	240
Frame#	Time	RHip			RKnee			RAnkle			RBigToe			RSmallToe			RHeel			LHip			LKnee			LAnkle			LBigToe			LSmallToe			LHeel			Neck			Head			Nose			RShoulder			RElbow			RWrist			RThumb			RIndex			RPinky			LShoulder			LElbow			LWrist			LThumb			LIndex			LPinky			
		X1	Y1	Z1	X2	Y2	Z2	X3	Y3	Z3	X4	Y4	Z4	X5	Y5	Z5	X6	Y6	Z6	X7	Y7	Z7	X8	Y8	Z8	X9	Y9	Z9	X10	Y10	Z10	X11	Y11	Z11	X12	Y12	Z12	X13	Y13	Z13	X14	Y14	Z14	X15	Y15	Z15	X16	Y16	Z16	X17	Y17	Z17	X18	Y18	Z18	X19	Y19	Z19	X20	Y20	Z20	X21	Y21	Z21	X22	Y22	Z22	X23	Y23	Z23	X24	Y24	Z24	X25	Y25	Z25	X26	Y26	Z26	X27	Y27	Z27	
0	0.0	0.29238321072508056	1.0099333837801967	0.14098936003605664	0.29113928105414194	0.5646919578452512	0.19685706191100957	0.27052266177907686	0.13597483026265453	0.24291746787239887	0.2661424671416845	0.13231031864800893	0.07996970891455184	0.3222789189893608	0.1284894794320815	0.10883387774501116	0.24956940671545805	0.07036861257447297	0.30689849095322624	0.06327039502627574	0.975028459827337	0.18022420748532594	0.0871285715986816	0.5527360111339692	0.21228366110273098	0.09593215158608173	0.14542027233400037	0.23774427245575874	0.11321518475410114	0.13122262422870568	0.06846143906451664	0.0674741163543931	0.16588410677757873	0.07068731521155835	0.10968227925790333	0.08415991273896038	0.2956181771649016	0.1847717171726899	1.5360669499315274	0.16130068918718835	0.18373332555669633	1.7800488541221668	0.11441598808188908	0.18005397796819803	1.6548667738492873	0.06752970696866117	0.34417350833989246	1.4465738689330332	0.15992335208739675	0.37993877191905717	1.2040058435677785	0.06634402977430401	0.25484931159938945	1.0179792806103172	0.00828384287688319	0.1699125602186151	0.9424076580647657	-0.000600518358335439	0.15835590148165887	0.9190026974795744	0.023958543968990553	0.154374794580047	0.9130061158957682	0.023770573679068055	0.025193323737972145	1.4575243475233952	0.1612902154339859	-0.026488260230630525	1.2041823993416196	0.12470382603993319	0.0818766384430938	1.0152915706977754	0.017724893331126118	0.20249394135521956	0.997893335828369	-0.003570879423515999	0.20676831041002222	0.9479558015284535	-0.005461516997998239	0.163520247477866	0.9073337898987551	0.009699230047826968	
1	0.0169491525423728	0.2919655128232293	1.0099860417933073	0.14216730345012651	0.2921303123955597	0.5665052855192144	0.19517256757171494	0.2705187902330226	0.13621089914068096	0.24280730569920006	0.266161482240327	0.13216319363777285	0.08011088490087118	0.32340310206504874	0.126118949666031	0.11706266971212473	0.2497977291678781	0.06994648084085116	0.30724770095646786	0.0629705443072619	0.9769070930770714	0.17892269245642395	0.08733772636977578	0.5534656600202585	0.21223229036194646	0.09586667631953034	0.14614243547792583	0.23806304175483609	0.112977696106629	0.1317739330436152	0.06792045074846477	0.06546734890401874	0.1629092616131587	0.07569615782479774	0.10880293581071641	0.0826663268064302	0.2985980591997825	0.18660949920486206	1.5381449668801883	0.1551151520669696	0.18437401495768754	1.7784477221260104	0.11461074919259978	0.1800990212320591	1.6548701005917454	0.06761004321764821	0.34225921317418634	1.446361746607036	0.15483153376516276	0.3797952125839014	1.2039374459029808	0.06620721644660935	0.2547558530429508	1.0170943265234405	0.008346477829746485	0.17072618727664116	0.9387434224390171	-0.0020359270515923067	0.1587623477515957	0.917736428697662	0.022182416818254447	0.15683965231890548	0.9089931656232628	0.0283020047364404	0.02509137658750391	1.4557972847702467	0.16126458967708984	-0.02648774191530986	1.2041314338537723	0.12464270167824065	0.08159578389814219	1.013613204896261	0.01783698169284173	0.2029077660172959	0.9964731028772648	-0.004992843173023703	0.2061102779587224	0.9457319169674311	-0.004260851958874323	0.16374506344101802	0.9081470966681005	0.009774982933739601	
2	0.0338983050847457	0.2916371057111182	1.0099806830647728	0.1430856695877219	0.2928554990362893	0.5679670620309989	0.1937245529714854	0.27051191433890215	0.13640540862580355	0.24271968256202867	0.2661827088672501	0.1320401754721386	0.08021319616748879	0.32431809404594236	0.12461937182250417	0.12141147771480777	0.24999315595178695	0.06951055740441937	0.30756792404502703	0.06268886219636621	0.9785240584181456	0.17761453834898966	0.087503197592227	0.5540782924142686	0.21218156363679186	0.09581660489991473	0.1467256789213334	0.23832083961567851	0.11281991323708404	0.13223339379758894	0.06746749617514589	0.06396191473764742	0.16063520989718033	0.07949244329197086	0.10819486003692394	0.08163836230418037	0.3006913650135535	0.1878604659875182	1.5386542412596205	0.1510950160071145	0.18445896880474796	1.7773985577931906	0.11455685327133724	0.18012963123461628	1.6548501403324147	0.0676425466958909	0.34104794943560596	1.4463567906892065	0.15160237167814178	0.37970924555748276	1.2038829436673673	0.0661580676327739	0.2546569003104265	1.016283376448602	0.008442506368269237	0.17099693877799668	0.9365158188704107	-0.0023957245377928676	0.1588391490750415	0.9165499555779066	0.021456108949876762	0.1579017375403912	0.9063556708776437	0.031496281855665775	0.02502496724925301	1.4547122785168394	0.1612092607562258	-0.026481319348291524	1.2041220330283715	0.12460551807610779	0.08141402882727984	1.0125416984611073	0.017895647428637196	0.203130636405267	0.9957832729021023	-0.005467452601385633	0.20588339918503099	0.9444028872718551	-0.003891894732544726	0.1638656713033098	0.9085126770460508	0.009812280208064211	
3	0.0508474576271186	0.29138927626464556	1.0099235454808697	0.14377052084199807	0.2933413203680162	0.5691073088408527	0.19249727100165887	0.270502973326231	0.13655835613441045	0.24265326703869738	0.26620278710798817	0.1319411426659573	0.0802790731573494	0.32505510662720694	0.12391656065059344	0.12261324609597574	0.2501581848402144	0.06906409146299664	0.3078603149967421	0.06242686724508772	0.9798967001880478	0.1763155269914597	0.08762820593521736	0.5545800166417417	0.21213198820661316	0.09578058293313166	0.14718127102194206	0.2385225744015609	0.11273021516589853	0.1326091449130014	0.06709693477741059	0.06290561234934576	0.15900291410252718	0.08218901936077178	0.10783129602172181	0.08103077890034438	0.30198459340475226	0.1886220882560177	1.5379693984676013	0.14883618282050146	0.18411385514536552	1.7767972519020248	0.1143122560920822	0.1801485302591709	1.6548131203375165	0.06763827655531843	0.3404044385446078	1.4465084243694153	0.1498782993619913	0.37966841340319324	1.2038426099401813	0.06616813379994546	0.2545574676005237	1.0155596111101766	0.008560674235872145	0.1708109765354569	0.9354389060983623	-0.001868539895686111	0.15861396673692604	0.9154329433626639	0.021650412388519724	0.15788482933259132	0.9048211219957204	0.03347938852175057	0.024987563838393505	1.4541462119655801	0.16113588582561664	-0.02647193964928158	1.2041445273503146	0.12458775948380355	0.08131172568711201	1.0119614145307287	0.017912500928252945	0.20318988846233654	0.9956723231541208	-0.005258907858877976	0.2059423605607871	0.943781375891216	-0.004158403536013197	0.1639020582814938	0.9085083336083305	0.009820787712921178	
